<?xml version="1.0" encoding="utf-8"?>
<!-- Generator: Adobe Illustrator 16.0.0, SVG Export Plug-In . SVG Version: 6.00 Build 0)  -->
<!DOCTYPE svg PUBLIC "-//W3C//DTD SVG 1.1//EN" "http://www.w3.org/Graphics/SVG/1.1/DTD/svg11.dtd">
<svg version="1.1" id="Layer_1" xmlns="http://www.w3.org/2000/svg" xmlns:xlink="http://www.w3.org/1999/xlink" x="0px" y="0px"
	 width="612px" height="118px" viewBox="0 0 612 118" enable-background="new 0 0 612 118" xml:space="preserve">
<g>
	<path d="M233.743,39.751c-7.254,0-12.211,2.782-15.957,7.131c-2.782-4.107-8.101-7.131-14.144-7.131
		c-6.046,0-10.882,2.295-13.42,5.684v-4.477h-12.088v53.675h12.088V58.608c1.088-5.318,5.199-7.978,9.552-7.978
		c5.922,0,8.823,4.353,8.823,11.001v33.001h12.091V58.608c1.088-5.318,5.198-7.978,9.548-7.978c5.925,0,8.827,4.353,8.827,11.001
		v33.001h12.087V59.696C251.149,47.488,244.742,39.751,233.743,39.751"/>
	<path d="M302.777,39.751c-15.112,0-25.509,11.603-25.509,28.049c0,16.438,10.396,28.045,25.509,28.045
		c15.108,0,25.504-11.606,25.504-28.045C328.281,51.354,317.886,39.751,302.777,39.751 M302.777,85.449
		c-8.706,0-13.421-7.497-13.421-17.649c0-10.157,4.716-17.652,13.421-17.652c8.701,0,13.418,7.495,13.418,17.652
		C316.195,77.952,311.479,85.449,302.777,85.449"/>
	<path d="M392.911,45.554c-2.419-3.02-7.735-5.802-13.661-5.802c-15.717,0-24.902,12.691-24.902,28.047
		c0,15.475,9.186,28.046,24.902,28.046c5.926,0,11.242-2.783,13.661-5.807v4.596h12.088V20.025h-12.088V45.554z M392.911,77.953
		c-2.056,4.229-6.649,7.132-11.605,7.132c-9.308,0-14.87-7.373-14.87-17.286c0-9.915,5.562-17.286,14.87-17.286
		c4.956,0,9.55,2.9,11.605,7.131V77.953z"/>
	<path d="M461.214,39.751c-14.387,0-24.663,11.727-24.663,28.53c0,16.927,10.881,27.564,26.598,27.564
		c6.77,0,12.451-1.331,17.046-4.719V80.489c-5.079,3.507-9.308,4.96-15.354,4.96c-8.583,0-15.714-4.478-16.562-14.992h35.542v-4.354
		C483.82,50.389,476.084,39.751,461.214,39.751 M449.004,61.268c1.812-8.219,7.011-11.361,12.33-11.361
		c6.89,0,10.639,4.836,11.003,11.361H449.004z"/>
	<path d="M538.362,63.686l-7.014-2.177c-4.591-1.447-6.889-2.66-6.889-6.16c0-3.63,3.747-5.566,8.582-5.566
		c6.284,0,11.485,2.901,16.079,6.895V44.465c-4.473-3.02-9.795-4.714-16.079-4.714c-11.483,0-20.188,6.284-20.188,16.079
		c0,9.186,5.561,13.416,14.507,16.198l5.803,1.812c4.23,1.331,7.133,2.784,7.133,6.289c0,3.99-4.231,5.68-9.308,5.68
		c-6.287,0-13.057-2.901-18.135-7.856v12.332c4.231,3.503,11.244,5.561,18.013,5.561c11.969,0,21.154-5.925,21.154-16.319
		C552.021,71.305,547.308,66.469,538.362,63.686"/>
	<polygon points="597.55,43.587 597.55,22.606 585.461,22.606 585.461,43.587 574.58,43.587 574.58,53.624 585.461,53.624 
		585.461,94.633 597.55,94.633 597.55,53.624 609.64,53.624 609.64,43.587 	"/>
	<path d="M2.699,116.265h114.528V1.736H2.699V116.265z M14.603,104.359v-3.548l90.721-20.248v23.796H14.603z"/>
</g>
</svg>
